<mxfile host="Electron" agent="Mozilla/5.0 (Windows NT 10.0; Win64; x64) AppleWebKit/537.36 (KHTML, like Gecko) draw.io/26.0.9 Chrome/128.0.6613.186 Electron/32.2.5 Safari/537.36" version="26.0.9" pages="2">
  <diagram name="第 1 页" id="28l4oXV9LbGAEuBednzb">
    <mxGraphModel dx="3124" dy="1818" grid="1" gridSize="10" guides="1" tooltips="1" connect="1" arrows="1" fold="1" page="1" pageScale="1" pageWidth="2560" pageHeight="1440" background="none" math="0" shadow="0">
      <root>
        <mxCell id="0" />
        <mxCell id="1" parent="0" />
        <mxCell id="bdImK2pdF9n6uEm0vqo8-24" value="" style="shape=table;startSize=0;container=1;collapsible=0;childLayout=tableLayout;movable=0;resizable=0;rotatable=0;deletable=0;editable=0;locked=1;connectable=0;" parent="1" vertex="1">
          <mxGeometry x="310" y="150" width="1940" height="1140" as="geometry" />
        </mxCell>
        <mxCell id="bdImK2pdF9n6uEm0vqo8-25" value="" style="shape=tableRow;horizontal=0;startSize=0;swimlaneHead=0;swimlaneBody=0;strokeColor=inherit;top=0;left=0;bottom=0;right=0;collapsible=0;dropTarget=0;fillColor=none;points=[[0,0.5],[1,0.5]];portConstraint=eastwest;opacity=80;" parent="bdImK2pdF9n6uEm0vqo8-24" vertex="1">
          <mxGeometry width="1940" height="1140" as="geometry" />
        </mxCell>
        <mxCell id="bdImK2pdF9n6uEm0vqo8-26" value="" style="shape=partialRectangle;html=1;whiteSpace=wrap;connectable=0;strokeColor=#6c8ebf;overflow=hidden;fillColor=#dae8fc;top=0;left=0;bottom=0;right=0;pointerEvents=1;opacity=70;" parent="bdImK2pdF9n6uEm0vqo8-25" vertex="1">
          <mxGeometry width="486" height="1140" as="geometry">
            <mxRectangle width="486" height="1140" as="alternateBounds" />
          </mxGeometry>
        </mxCell>
        <mxCell id="bdImK2pdF9n6uEm0vqo8-27" value="" style="shape=partialRectangle;html=1;whiteSpace=wrap;connectable=0;strokeColor=#82b366;overflow=hidden;fillColor=#d5e8d4;top=0;left=0;bottom=0;right=0;pointerEvents=1;opacity=70;" parent="bdImK2pdF9n6uEm0vqo8-25" vertex="1">
          <mxGeometry x="486" width="484" height="1140" as="geometry">
            <mxRectangle width="484" height="1140" as="alternateBounds" />
          </mxGeometry>
        </mxCell>
        <mxCell id="bdImK2pdF9n6uEm0vqo8-28" value="" style="shape=partialRectangle;html=1;whiteSpace=wrap;connectable=0;strokeColor=#d79b00;overflow=hidden;fillColor=#ffe6cc;top=0;left=0;bottom=0;right=0;pointerEvents=1;opacity=70;" parent="bdImK2pdF9n6uEm0vqo8-25" vertex="1">
          <mxGeometry x="970" width="486" height="1140" as="geometry">
            <mxRectangle width="486" height="1140" as="alternateBounds" />
          </mxGeometry>
        </mxCell>
        <mxCell id="bdImK2pdF9n6uEm0vqo8-29" value="" style="shape=partialRectangle;html=1;whiteSpace=wrap;connectable=0;strokeColor=#d6b656;overflow=hidden;fillColor=#fff2cc;top=0;left=0;bottom=0;right=0;pointerEvents=1;opacity=70;" parent="bdImK2pdF9n6uEm0vqo8-25" vertex="1">
          <mxGeometry x="1456" width="484" height="1140" as="geometry">
            <mxRectangle width="484" height="1140" as="alternateBounds" />
          </mxGeometry>
        </mxCell>
        <mxCell id="bdImK2pdF9n6uEm0vqo8-30" value="" style="rounded=0;whiteSpace=wrap;html=1;fillColor=#dae8fc;strokeColor=#6c8ebf;opacity=90;" parent="1" vertex="1">
          <mxGeometry x="380" y="180" width="160" height="40" as="geometry" />
        </mxCell>
        <mxCell id="bdImK2pdF9n6uEm0vqo8-35" value="" style="rounded=0;whiteSpace=wrap;html=1;fillColor=#dae8fc;strokeColor=#6c8ebf;opacity=90;" parent="1" vertex="1">
          <mxGeometry x="490" y="240" width="190" height="40" as="geometry" />
        </mxCell>
        <mxCell id="bdImK2pdF9n6uEm0vqo8-36" value="" style="rounded=0;whiteSpace=wrap;html=1;fillColor=#dae8fc;strokeColor=#6c8ebf;opacity=90;" parent="1" vertex="1">
          <mxGeometry x="430" y="300" width="780" height="40" as="geometry" />
        </mxCell>
        <mxCell id="bdImK2pdF9n6uEm0vqo8-37" value="" style="rounded=0;whiteSpace=wrap;html=1;fillColor=#dae8fc;strokeColor=#6c8ebf;opacity=90;" parent="1" vertex="1">
          <mxGeometry x="720" y="360" width="760" height="40" as="geometry" />
        </mxCell>
        <mxCell id="bdImK2pdF9n6uEm0vqo8-38" value="" style="rounded=0;whiteSpace=wrap;html=1;fillColor=#dae8fc;strokeColor=#6c8ebf;opacity=90;" parent="1" vertex="1">
          <mxGeometry x="600" y="420" width="1110" height="40" as="geometry" />
        </mxCell>
        <mxCell id="bdImK2pdF9n6uEm0vqo8-39" value="" style="rounded=0;whiteSpace=wrap;html=1;fillColor=#dae8fc;strokeColor=#6c8ebf;opacity=90;" parent="1" vertex="1">
          <mxGeometry x="530" y="480" width="1290" height="40" as="geometry" />
        </mxCell>
        <mxCell id="bdImK2pdF9n6uEm0vqo8-40" value="" style="rounded=0;whiteSpace=wrap;html=1;fillColor=#dae8fc;strokeColor=#6c8ebf;opacity=90;" parent="1" vertex="1">
          <mxGeometry x="720" y="540" width="1250" height="40" as="geometry" />
        </mxCell>
        <mxCell id="bdImK2pdF9n6uEm0vqo8-41" value="" style="rounded=0;whiteSpace=wrap;html=1;fillColor=#dae8fc;strokeColor=#6c8ebf;opacity=90;" parent="1" vertex="1">
          <mxGeometry x="640" y="600" width="1460" height="40" as="geometry" />
        </mxCell>
        <mxCell id="bdImK2pdF9n6uEm0vqo8-42" value="" style="rounded=0;whiteSpace=wrap;html=1;fillColor=#d5e8d4;strokeColor=#82b366;opacity=90;" parent="1" vertex="1">
          <mxGeometry x="1050" y="660" width="340" height="40" as="geometry" />
        </mxCell>
        <mxCell id="bdImK2pdF9n6uEm0vqo8-43" value="" style="rounded=0;whiteSpace=wrap;html=1;fillColor=#d5e8d4;strokeColor=#82b366;opacity=90;" parent="1" vertex="1">
          <mxGeometry x="930" y="720" width="620" height="40" as="geometry" />
        </mxCell>
        <mxCell id="bdImK2pdF9n6uEm0vqo8-44" value="" style="rounded=0;whiteSpace=wrap;html=1;fillColor=#d5e8d4;strokeColor=#82b366;opacity=90;" parent="1" vertex="1">
          <mxGeometry x="840" y="780" width="860" height="40" as="geometry" />
        </mxCell>
        <mxCell id="bdImK2pdF9n6uEm0vqo8-45" value="" style="rounded=0;whiteSpace=wrap;html=1;fillColor=#d5e8d4;strokeColor=#82b366;opacity=90;" parent="1" vertex="1">
          <mxGeometry x="1050" y="840" width="820" height="40" as="geometry" />
        </mxCell>
        <mxCell id="bdImK2pdF9n6uEm0vqo8-46" value="" style="rounded=0;whiteSpace=wrap;html=1;fillColor=#d5e8d4;strokeColor=#82b366;opacity=90;" parent="1" vertex="1">
          <mxGeometry x="990" y="900" width="1040" height="40" as="geometry" />
        </mxCell>
        <mxCell id="bdImK2pdF9n6uEm0vqo8-47" value="" style="rounded=0;whiteSpace=wrap;html=1;fillColor=#d5e8d4;strokeColor=#82b366;opacity=90;" parent="1" vertex="1">
          <mxGeometry x="930" y="960" width="1210" height="40" as="geometry" />
        </mxCell>
        <mxCell id="bdImK2pdF9n6uEm0vqo8-48" value="" style="rounded=0;whiteSpace=wrap;html=1;fillColor=#ffe6cc;strokeColor=#d79b00;opacity=90;" parent="1" vertex="1">
          <mxGeometry x="1320" y="1020" width="180" height="40" as="geometry" />
        </mxCell>
        <mxCell id="bdImK2pdF9n6uEm0vqo8-49" value="" style="rounded=0;whiteSpace=wrap;html=1;fillColor=#ffe6cc;strokeColor=#d79b00;opacity=90;" parent="1" vertex="1">
          <mxGeometry x="1580" y="1080" width="160" height="40" as="geometry" />
        </mxCell>
        <mxCell id="bdImK2pdF9n6uEm0vqo8-50" value="" style="rounded=0;whiteSpace=wrap;html=1;fillColor=#ffe6cc;strokeColor=#d79b00;opacity=90;" parent="1" vertex="1">
          <mxGeometry x="1490" y="1140" width="440" height="40" as="geometry" />
        </mxCell>
        <mxCell id="bdImK2pdF9n6uEm0vqo8-51" value="" style="rounded=0;whiteSpace=wrap;html=1;fillColor=#ffe6cc;strokeColor=#d79b00;opacity=90;" parent="1" vertex="1">
          <mxGeometry x="1410" y="1200" width="770" height="40" as="geometry" />
        </mxCell>
        <mxCell id="XIscwitH9dNIGniiweAP-10" value="" style="curved=1;endArrow=classic;html=1;rounded=0;entryX=0;entryY=0.5;entryDx=0;entryDy=0;exitX=0;exitY=0.5;exitDx=0;exitDy=0;strokeWidth=2;fillColor=#0050ef;strokeColor=#001DBC;" parent="1" source="bdImK2pdF9n6uEm0vqo8-30" target="bdImK2pdF9n6uEm0vqo8-41" edge="1">
          <mxGeometry width="50" height="50" relative="1" as="geometry">
            <mxPoint x="30" y="620" as="sourcePoint" />
            <mxPoint x="270" y="340" as="targetPoint" />
            <Array as="points">
              <mxPoint x="490" y="250" />
              <mxPoint x="430" y="320" />
              <mxPoint x="720" y="370" />
              <mxPoint x="600" y="440" />
              <mxPoint x="530" y="500" />
              <mxPoint x="720" y="560" />
            </Array>
          </mxGeometry>
        </mxCell>
        <mxCell id="XIscwitH9dNIGniiweAP-11" value="" style="curved=1;endArrow=classic;html=1;rounded=0;entryX=0;entryY=0.5;entryDx=0;entryDy=0;exitX=0;exitY=0.5;exitDx=0;exitDy=0;strokeWidth=2;fillColor=#0050ef;strokeColor=#001DBC;" parent="1" source="bdImK2pdF9n6uEm0vqo8-42" target="bdImK2pdF9n6uEm0vqo8-47" edge="1">
          <mxGeometry width="50" height="50" relative="1" as="geometry">
            <mxPoint x="90" y="830" as="sourcePoint" />
            <mxPoint x="270" y="610" as="targetPoint" />
            <Array as="points">
              <mxPoint x="930" y="740" />
              <mxPoint x="840" y="800" />
              <mxPoint x="1050" y="850" />
              <mxPoint x="990" y="920" />
            </Array>
          </mxGeometry>
        </mxCell>
        <mxCell id="XIscwitH9dNIGniiweAP-12" value="" style="curved=1;endArrow=classic;html=1;rounded=0;entryX=0;entryY=0.5;entryDx=0;entryDy=0;exitX=0;exitY=0.5;exitDx=0;exitDy=0;strokeWidth=2;fillColor=#0050ef;strokeColor=#001DBC;" parent="1" source="bdImK2pdF9n6uEm0vqo8-48" target="bdImK2pdF9n6uEm0vqo8-51" edge="1">
          <mxGeometry width="50" height="50" relative="1" as="geometry">
            <mxPoint x="1100" y="1120" as="sourcePoint" />
            <mxPoint x="1150" y="1070" as="targetPoint" />
            <Array as="points">
              <mxPoint x="1580" y="1100" />
            </Array>
          </mxGeometry>
        </mxCell>
        <mxCell id="XIscwitH9dNIGniiweAP-13" value="" style="endArrow=classic;html=1;rounded=0;curved=1;entryX=1;entryY=0.5;entryDx=0;entryDy=0;strokeWidth=2;fillColor=#f8cecc;strokeColor=#b85450;" parent="1" target="bdImK2pdF9n6uEm0vqo8-41" edge="1">
          <mxGeometry width="50" height="50" relative="1" as="geometry">
            <mxPoint x="540" y="200" as="sourcePoint" />
            <mxPoint x="590" y="150" as="targetPoint" />
          </mxGeometry>
        </mxCell>
        <mxCell id="XIscwitH9dNIGniiweAP-14" value="" style="endArrow=classic;html=1;rounded=0;curved=1;exitX=1;exitY=0.5;exitDx=0;exitDy=0;entryX=1;entryY=0.5;entryDx=0;entryDy=0;strokeWidth=2;fillColor=#f8cecc;strokeColor=#b85450;" parent="1" source="bdImK2pdF9n6uEm0vqo8-41" target="bdImK2pdF9n6uEm0vqo8-42" edge="1">
          <mxGeometry width="50" height="50" relative="1" as="geometry">
            <mxPoint x="1880" y="810" as="sourcePoint" />
            <mxPoint x="1930" y="760" as="targetPoint" />
          </mxGeometry>
        </mxCell>
        <mxCell id="XIscwitH9dNIGniiweAP-15" value="" style="endArrow=classic;html=1;rounded=0;curved=1;entryX=1;entryY=0.5;entryDx=0;entryDy=0;exitX=1;exitY=0.5;exitDx=0;exitDy=0;strokeWidth=2;fillColor=#f8cecc;strokeColor=#b85450;" parent="1" source="bdImK2pdF9n6uEm0vqo8-42" target="bdImK2pdF9n6uEm0vqo8-47" edge="1">
          <mxGeometry width="50" height="50" relative="1" as="geometry">
            <mxPoint x="1710" y="770" as="sourcePoint" />
            <mxPoint x="1760" y="720" as="targetPoint" />
          </mxGeometry>
        </mxCell>
        <mxCell id="XIscwitH9dNIGniiweAP-16" value="" style="endArrow=classic;html=1;rounded=0;curved=1;entryX=1;entryY=0.25;entryDx=0;entryDy=0;exitX=1;exitY=0.5;exitDx=0;exitDy=0;strokeWidth=2;fillColor=#f8cecc;strokeColor=#b85450;" parent="1" source="bdImK2pdF9n6uEm0vqo8-48" target="bdImK2pdF9n6uEm0vqo8-51" edge="1">
          <mxGeometry width="50" height="50" relative="1" as="geometry">
            <mxPoint x="2100" y="1090" as="sourcePoint" />
            <mxPoint x="2150" y="1040" as="targetPoint" />
          </mxGeometry>
        </mxCell>
        <mxCell id="XIscwitH9dNIGniiweAP-17" value="" style="endArrow=classic;html=1;rounded=0;curved=1;entryX=1;entryY=0.5;entryDx=0;entryDy=0;exitX=1;exitY=0.5;exitDx=0;exitDy=0;strokeWidth=2;fillColor=#f8cecc;strokeColor=#b85450;" parent="1" source="bdImK2pdF9n6uEm0vqo8-47" target="bdImK2pdF9n6uEm0vqo8-48" edge="1">
          <mxGeometry width="50" height="50" relative="1" as="geometry">
            <mxPoint x="2090" y="1130" as="sourcePoint" />
            <mxPoint x="2140" y="1080" as="targetPoint" />
          </mxGeometry>
        </mxCell>
        <mxCell id="4EFSOfkv4Dh9FEwjnSnY-1" style="edgeStyle=none;rounded=0;orthogonalLoop=1;jettySize=auto;html=1;exitX=0;exitY=0.5;exitDx=0;exitDy=0;strokeWidth=2;fillColor=#0050ef;strokeColor=#001DBC;" parent="1" source="bdImK2pdF9n6uEm0vqo8-41" edge="1">
          <mxGeometry relative="1" as="geometry">
            <mxPoint x="1049.9999999999995" y="680" as="targetPoint" />
          </mxGeometry>
        </mxCell>
        <mxCell id="4EFSOfkv4Dh9FEwjnSnY-2" style="edgeStyle=none;rounded=0;orthogonalLoop=1;jettySize=auto;html=1;exitX=0;exitY=0.5;exitDx=0;exitDy=0;entryX=0;entryY=0.5;entryDx=0;entryDy=0;strokeWidth=2;fillColor=#0050ef;strokeColor=#001DBC;" parent="1" source="bdImK2pdF9n6uEm0vqo8-47" target="bdImK2pdF9n6uEm0vqo8-48" edge="1">
          <mxGeometry relative="1" as="geometry" />
        </mxCell>
      </root>
    </mxGraphModel>
  </diagram>
  <diagram id="2vuG3i7vVBRomdrLMXuV" name="第 2 页">
    <mxGraphModel dx="1562" dy="909" grid="1" gridSize="10" guides="1" tooltips="1" connect="1" arrows="1" fold="1" page="1" pageScale="1" pageWidth="2560" pageHeight="1440" math="0" shadow="0">
      <root>
        <mxCell id="0" />
        <mxCell id="1" parent="0" />
        <mxCell id="gpxAyObssbTUDatlN_iU-1" value="" style="shape=table;startSize=0;container=1;collapsible=0;childLayout=tableLayout;movable=0;resizable=0;rotatable=0;deletable=0;editable=0;locked=1;connectable=0;" parent="1" vertex="1">
          <mxGeometry x="310" y="150" width="1940" height="1140" as="geometry" />
        </mxCell>
        <mxCell id="gpxAyObssbTUDatlN_iU-2" value="" style="shape=tableRow;horizontal=0;startSize=0;swimlaneHead=0;swimlaneBody=0;strokeColor=inherit;top=0;left=0;bottom=0;right=0;collapsible=0;dropTarget=0;fillColor=none;points=[[0,0.5],[1,0.5]];portConstraint=eastwest;opacity=80;" parent="gpxAyObssbTUDatlN_iU-1" vertex="1">
          <mxGeometry width="1940" height="1140" as="geometry" />
        </mxCell>
        <mxCell id="gpxAyObssbTUDatlN_iU-3" value="" style="shape=partialRectangle;html=1;whiteSpace=wrap;connectable=0;strokeColor=#6c8ebf;overflow=hidden;fillColor=#dae8fc;top=0;left=0;bottom=0;right=0;pointerEvents=1;opacity=70;" parent="gpxAyObssbTUDatlN_iU-2" vertex="1">
          <mxGeometry width="486" height="1140" as="geometry">
            <mxRectangle width="486" height="1140" as="alternateBounds" />
          </mxGeometry>
        </mxCell>
        <mxCell id="gpxAyObssbTUDatlN_iU-4" value="" style="shape=partialRectangle;html=1;whiteSpace=wrap;connectable=0;strokeColor=#82b366;overflow=hidden;fillColor=#d5e8d4;top=0;left=0;bottom=0;right=0;pointerEvents=1;opacity=70;" parent="gpxAyObssbTUDatlN_iU-2" vertex="1">
          <mxGeometry x="486" width="484" height="1140" as="geometry">
            <mxRectangle width="484" height="1140" as="alternateBounds" />
          </mxGeometry>
        </mxCell>
        <mxCell id="gpxAyObssbTUDatlN_iU-5" value="" style="shape=partialRectangle;html=1;whiteSpace=wrap;connectable=0;strokeColor=#d79b00;overflow=hidden;fillColor=#ffe6cc;top=0;left=0;bottom=0;right=0;pointerEvents=1;opacity=70;" parent="gpxAyObssbTUDatlN_iU-2" vertex="1">
          <mxGeometry x="970" width="486" height="1140" as="geometry">
            <mxRectangle width="486" height="1140" as="alternateBounds" />
          </mxGeometry>
        </mxCell>
        <mxCell id="gpxAyObssbTUDatlN_iU-6" value="" style="shape=partialRectangle;html=1;whiteSpace=wrap;connectable=0;strokeColor=#d6b656;overflow=hidden;fillColor=#fff2cc;top=0;left=0;bottom=0;right=0;pointerEvents=1;opacity=70;" parent="gpxAyObssbTUDatlN_iU-2" vertex="1">
          <mxGeometry x="1456" width="484" height="1140" as="geometry">
            <mxRectangle width="484" height="1140" as="alternateBounds" />
          </mxGeometry>
        </mxCell>
        <mxCell id="gpxAyObssbTUDatlN_iU-7" value="" style="rounded=0;whiteSpace=wrap;html=1;fillColor=#dae8fc;strokeColor=#6c8ebf;opacity=90;" parent="1" vertex="1">
          <mxGeometry x="380" y="180" width="160" height="40" as="geometry" />
        </mxCell>
        <mxCell id="gpxAyObssbTUDatlN_iU-8" value="" style="rounded=0;whiteSpace=wrap;html=1;fillColor=#dae8fc;strokeColor=#6c8ebf;opacity=90;" parent="1" vertex="1">
          <mxGeometry x="490" y="240" width="190" height="40" as="geometry" />
        </mxCell>
        <mxCell id="gpxAyObssbTUDatlN_iU-9" value="" style="rounded=0;whiteSpace=wrap;html=1;fillColor=#dae8fc;strokeColor=#6c8ebf;opacity=90;" parent="1" vertex="1">
          <mxGeometry x="430" y="300" width="780" height="40" as="geometry" />
        </mxCell>
        <mxCell id="gpxAyObssbTUDatlN_iU-10" value="" style="rounded=0;whiteSpace=wrap;html=1;fillColor=#dae8fc;strokeColor=#6c8ebf;opacity=90;" parent="1" vertex="1">
          <mxGeometry x="720" y="360" width="760" height="40" as="geometry" />
        </mxCell>
        <mxCell id="gpxAyObssbTUDatlN_iU-11" value="" style="rounded=0;whiteSpace=wrap;html=1;fillColor=#dae8fc;strokeColor=#6c8ebf;opacity=90;" parent="1" vertex="1">
          <mxGeometry x="600" y="420" width="1110" height="40" as="geometry" />
        </mxCell>
        <mxCell id="gpxAyObssbTUDatlN_iU-12" value="" style="rounded=0;whiteSpace=wrap;html=1;fillColor=#dae8fc;strokeColor=#6c8ebf;opacity=90;" parent="1" vertex="1">
          <mxGeometry x="530" y="480" width="1290" height="40" as="geometry" />
        </mxCell>
        <mxCell id="gpxAyObssbTUDatlN_iU-13" value="" style="rounded=0;whiteSpace=wrap;html=1;fillColor=#dae8fc;strokeColor=#6c8ebf;opacity=90;" parent="1" vertex="1">
          <mxGeometry x="720" y="540" width="1250" height="40" as="geometry" />
        </mxCell>
        <mxCell id="gpxAyObssbTUDatlN_iU-14" value="" style="rounded=0;whiteSpace=wrap;html=1;fillColor=#dae8fc;strokeColor=#6c8ebf;opacity=90;" parent="1" vertex="1">
          <mxGeometry x="640" y="600" width="1460" height="40" as="geometry" />
        </mxCell>
        <mxCell id="gpxAyObssbTUDatlN_iU-15" value="" style="rounded=0;whiteSpace=wrap;html=1;fillColor=#d5e8d4;strokeColor=#82b366;opacity=90;" parent="1" vertex="1">
          <mxGeometry x="1050" y="960" width="340" height="40" as="geometry" />
        </mxCell>
        <mxCell id="gpxAyObssbTUDatlN_iU-16" value="" style="rounded=0;whiteSpace=wrap;html=1;fillColor=#d5e8d4;strokeColor=#82b366;opacity=90;" parent="1" vertex="1">
          <mxGeometry x="930" y="900" width="620" height="40" as="geometry" />
        </mxCell>
        <mxCell id="gpxAyObssbTUDatlN_iU-17" value="" style="rounded=0;whiteSpace=wrap;html=1;fillColor=#d5e8d4;strokeColor=#82b366;opacity=90;" parent="1" vertex="1">
          <mxGeometry x="840" y="840" width="860" height="40" as="geometry" />
        </mxCell>
        <mxCell id="gpxAyObssbTUDatlN_iU-18" value="" style="rounded=0;whiteSpace=wrap;html=1;fillColor=#d5e8d4;strokeColor=#82b366;opacity=90;" parent="1" vertex="1">
          <mxGeometry x="1040" y="780" width="820" height="40" as="geometry" />
        </mxCell>
        <mxCell id="gpxAyObssbTUDatlN_iU-19" value="" style="rounded=0;whiteSpace=wrap;html=1;fillColor=#d5e8d4;strokeColor=#82b366;opacity=90;" parent="1" vertex="1">
          <mxGeometry x="990" y="720" width="1040" height="40" as="geometry" />
        </mxCell>
        <mxCell id="gpxAyObssbTUDatlN_iU-20" value="" style="rounded=0;whiteSpace=wrap;html=1;fillColor=#d5e8d4;strokeColor=#82b366;opacity=90;" parent="1" vertex="1">
          <mxGeometry x="930" y="660" width="1210" height="40" as="geometry" />
        </mxCell>
        <mxCell id="gpxAyObssbTUDatlN_iU-21" value="" style="rounded=0;whiteSpace=wrap;html=1;fillColor=#ffe6cc;strokeColor=#d79b00;opacity=90;" parent="1" vertex="1">
          <mxGeometry x="1320" y="1020" width="180" height="40" as="geometry" />
        </mxCell>
        <mxCell id="gpxAyObssbTUDatlN_iU-22" value="" style="rounded=0;whiteSpace=wrap;html=1;fillColor=#ffe6cc;strokeColor=#d79b00;opacity=90;" parent="1" vertex="1">
          <mxGeometry x="1580" y="1080" width="160" height="40" as="geometry" />
        </mxCell>
        <mxCell id="gpxAyObssbTUDatlN_iU-23" value="" style="rounded=0;whiteSpace=wrap;html=1;fillColor=#ffe6cc;strokeColor=#d79b00;opacity=90;" parent="1" vertex="1">
          <mxGeometry x="1490" y="1140" width="440" height="40" as="geometry" />
        </mxCell>
        <mxCell id="gpxAyObssbTUDatlN_iU-24" value="" style="rounded=0;whiteSpace=wrap;html=1;fillColor=#ffe6cc;strokeColor=#d79b00;opacity=90;" parent="1" vertex="1">
          <mxGeometry x="1410" y="1200" width="770" height="40" as="geometry" />
        </mxCell>
        <mxCell id="G4t2pvots_HDDIClylF2-1" value="" style="curved=1;endArrow=classic;html=1;rounded=0;entryX=0;entryY=0.5;entryDx=0;entryDy=0;exitX=0;exitY=0.5;exitDx=0;exitDy=0;strokeWidth=2;fillColor=#0050ef;strokeColor=#001DBC;" parent="1" edge="1">
          <mxGeometry width="50" height="50" relative="1" as="geometry">
            <mxPoint x="380" y="200" as="sourcePoint" />
            <mxPoint x="640" y="620" as="targetPoint" />
            <Array as="points">
              <mxPoint x="490" y="250" />
              <mxPoint x="430" y="320" />
              <mxPoint x="720" y="370" />
              <mxPoint x="600" y="440" />
              <mxPoint x="530" y="500" />
              <mxPoint x="720" y="560" />
            </Array>
          </mxGeometry>
        </mxCell>
        <mxCell id="G4t2pvots_HDDIClylF2-2" value="" style="curved=1;endArrow=classic;html=1;rounded=0;entryX=0;entryY=0.5;entryDx=0;entryDy=0;exitX=0;exitY=0.25;exitDx=0;exitDy=0;strokeWidth=2;fillColor=#0050ef;strokeColor=#001DBC;" parent="1" source="gpxAyObssbTUDatlN_iU-20" target="gpxAyObssbTUDatlN_iU-15" edge="1">
          <mxGeometry width="50" height="50" relative="1" as="geometry">
            <mxPoint x="1050" y="680" as="sourcePoint" />
            <mxPoint x="930" y="980" as="targetPoint" />
            <Array as="points">
              <mxPoint x="1000" y="740" />
              <mxPoint x="1040" y="800" />
              <mxPoint x="840" y="860" />
              <mxPoint x="930" y="920" />
            </Array>
          </mxGeometry>
        </mxCell>
        <mxCell id="G4t2pvots_HDDIClylF2-3" value="" style="curved=1;endArrow=classic;html=1;rounded=0;entryX=0;entryY=0.5;entryDx=0;entryDy=0;exitX=0;exitY=0.5;exitDx=0;exitDy=0;strokeWidth=2;fillColor=#0050ef;strokeColor=#001DBC;" parent="1" edge="1">
          <mxGeometry width="50" height="50" relative="1" as="geometry">
            <mxPoint x="1320" y="1040" as="sourcePoint" />
            <mxPoint x="1410" y="1220" as="targetPoint" />
            <Array as="points">
              <mxPoint x="1580" y="1100" />
            </Array>
          </mxGeometry>
        </mxCell>
        <mxCell id="G4t2pvots_HDDIClylF2-6" style="edgeStyle=none;rounded=0;orthogonalLoop=1;jettySize=auto;html=1;exitX=1;exitY=0.5;exitDx=0;exitDy=0;entryX=1;entryY=0.5;entryDx=0;entryDy=0;strokeWidth=2;fillColor=#d80073;strokeColor=#A50040;" parent="1" source="gpxAyObssbTUDatlN_iU-14" target="gpxAyObssbTUDatlN_iU-20" edge="1">
          <mxGeometry relative="1" as="geometry" />
        </mxCell>
        <mxCell id="G4t2pvots_HDDIClylF2-8" style="edgeStyle=none;rounded=0;orthogonalLoop=1;jettySize=auto;html=1;exitX=1;exitY=0.5;exitDx=0;exitDy=0;entryX=1;entryY=0.5;entryDx=0;entryDy=0;strokeWidth=2;fillColor=#d80073;strokeColor=#A50040;" parent="1" source="gpxAyObssbTUDatlN_iU-15" target="gpxAyObssbTUDatlN_iU-21" edge="1">
          <mxGeometry relative="1" as="geometry" />
        </mxCell>
        <mxCell id="G4t2pvots_HDDIClylF2-7" style="edgeStyle=none;rounded=0;orthogonalLoop=1;jettySize=auto;html=1;exitX=1;exitY=0.5;exitDx=0;exitDy=0;entryX=1;entryY=0.5;entryDx=0;entryDy=0;strokeWidth=2;fillColor=#d80073;strokeColor=#A50040;" parent="1" source="gpxAyObssbTUDatlN_iU-20" target="gpxAyObssbTUDatlN_iU-15" edge="1">
          <mxGeometry relative="1" as="geometry" />
        </mxCell>
        <mxCell id="G4t2pvots_HDDIClylF2-9" style="edgeStyle=none;rounded=0;orthogonalLoop=1;jettySize=auto;html=1;exitX=1;exitY=0.5;exitDx=0;exitDy=0;entryX=1;entryY=0.5;entryDx=0;entryDy=0;strokeWidth=2;fillColor=#d80073;strokeColor=#A50040;" parent="1" source="gpxAyObssbTUDatlN_iU-21" target="gpxAyObssbTUDatlN_iU-24" edge="1">
          <mxGeometry relative="1" as="geometry" />
        </mxCell>
        <mxCell id="G4t2pvots_HDDIClylF2-4" value="" style="endArrow=classic;html=1;rounded=0;curved=1;entryX=1;entryY=0.5;entryDx=0;entryDy=0;strokeWidth=2;fillColor=#d80073;strokeColor=#A50040;" parent="1" target="gpxAyObssbTUDatlN_iU-14" edge="1">
          <mxGeometry width="50" height="50" relative="1" as="geometry">
            <mxPoint x="540" y="200" as="sourcePoint" />
            <mxPoint x="590" y="150" as="targetPoint" />
          </mxGeometry>
        </mxCell>
        <mxCell id="VAv595RiaRj0DGU9kuSi-1" style="edgeStyle=none;rounded=0;orthogonalLoop=1;jettySize=auto;html=1;exitX=0;exitY=0.5;exitDx=0;exitDy=0;strokeWidth=2;fillColor=#0050ef;strokeColor=#001DBC;" parent="1" edge="1">
          <mxGeometry relative="1" as="geometry">
            <mxPoint x="940" y="680" as="targetPoint" />
            <mxPoint x="640" y="620" as="sourcePoint" />
          </mxGeometry>
        </mxCell>
        <mxCell id="VAv595RiaRj0DGU9kuSi-2" style="edgeStyle=none;rounded=0;orthogonalLoop=1;jettySize=auto;html=1;exitX=0;exitY=0.5;exitDx=0;exitDy=0;entryX=0;entryY=0.5;entryDx=0;entryDy=0;strokeWidth=2;fillColor=#0050ef;strokeColor=#001DBC;" parent="1" source="gpxAyObssbTUDatlN_iU-15" edge="1">
          <mxGeometry relative="1" as="geometry">
            <mxPoint x="930" y="980" as="sourcePoint" />
            <mxPoint x="1320" y="1040" as="targetPoint" />
          </mxGeometry>
        </mxCell>
      </root>
    </mxGraphModel>
  </diagram>
</mxfile>
